<?xml version="1.0" standalone="no"?>
<!DOCTYPE svg PUBLIC "-//W3C//DTD SVG 20010904//EN"
 "http://www.w3.org/TR/2001/REC-SVG-20010904/DTD/svg10.dtd">
<svg version="1.0" xmlns="http://www.w3.org/2000/svg"
 width="300.000000pt" height="300.000000pt" viewBox="0 0 300.000000 300.000000"
 preserveAspectRatio="xMidYMid meet">
<g transform="translate(0.000000,300.000000) scale(0.100000,-0.100000)"
fill="#000000" stroke="none">
<path d="M1193 2562 l-243 -2 0 -561 0 -560 118 7 c64 3 135 9 157 13 l40 7 5
434 5 435 355 -3 c371 -3 429 -9 542 -51 88 -34 142 -81 180 -158 l33 -68 0
-570 0 -570 -27 -51 c-47 -89 -120 -142 -253 -184 -89 -27 -325 -42 -620 -38
l-210 3 -3 254 -2 254 -107 -6 c-58 -4 -130 -7 -160 -7 l-53 0 0 -361 0 -360
573 4 c589 4 603 5 752 49 166 48 309 148 368 256 61 113 62 121 62 752 0 629
-1 633 -61 752 -80 158 -277 273 -540 313 -104 16 -451 22 -911 17z"/>
<path d="M390 1490 l0 -1070 165 0 165 0 0 385 0 385 233 0 c127 0 273 5 322
10 266 30 447 117 519 250 52 95 56 129 55 455 0 165 -3 318 -7 340 l-7 40
-193 3 c-105 1 -192 0 -192 -4 0 -3 13 -21 29 -40 17 -18 35 -50 40 -71 17
-61 14 -499 -4 -559 -20 -68 -65 -118 -138 -154 -101 -49 -174 -60 -429 -60
l-228 0 0 480 0 480 90 0 90 0 0 100 0 100 -255 0 -255 0 0 -1070z"/>
</g>
</svg>
